<svg xmlns="http://www.w3.org/2000/svg" xmlns:xlink="http://www.w3.org/1999/xlink" version="1.1" x="0px" y="0px" viewBox="0 0 100 100" enable-background="new 0 0 100 100" xml:space="preserve"><path d="M19.7,36l8.7,5c-2.2,3.7-3.4,8-3.4,12.5c0,13.8,11.2,25,25,25s25-11.2,25-25c0-13.3-10.4-24.2-23.5-25c0,1,0,2,0,3v2.7  c0,2.2-1.6,3.1-3.5,2l-5.4-3.1c-1.9-1.1-5-2.9-6.9-4L30.3,26c-1.9-1.1-1.9-2.9,0-4l5.4-3.1c1.9-1.1,5-2.9,6.9-4l5.4-3  c1.9-1.1,3.5-0.3,3.5,1.8c0,1.4,0,3.2,0,4.8C70.1,19.3,85,34.7,85,53.5c0,19.3-15.7,35-35,35s-35-15.7-35-35  C15,47.1,16.7,41.2,19.7,36z"></path></svg>